<?xml version="1.0" encoding="iso-8859-1"?>
<!-- Generator: Adobe Illustrator 16.0.0, SVG Export Plug-In . SVG Version: 6.00 Build 0)  -->
<!DOCTYPE svg PUBLIC "-//W3C//DTD SVG 1.1//EN" "http://www.w3.org/Graphics/SVG/1.1/DTD/svg11.dtd">
<svg version="1.1" id="Layer_1" xmlns="http://www.w3.org/2000/svg" xmlns:xlink="http://www.w3.org/1999/xlink" x="0px" y="0px"
	 width="512px" height="512px" viewBox="0 0 512 512" style="enable-background:new 0 0 512 512;" xml:space="preserve">
<g>
	<path d="M352.016,43.44c-57.787,0-107.605,30.499-129.691,74.124c-4.305-0.62-8.527-0.742-11.154-0.742
		c-9.541,0-34.412,1.672-59.264,17.154c-13.645,8.5-20.021,20.582-20.678,39.174c-0.002,0.056-0.002,0.111-0.002,0.169l0.047,0.001
		l-0.029,31.192l-0.01,0.003c-0.221,0.064-0.438,0.145-0.646,0.238c-3.234,1.455-4.928,0.799-5.33,7.595
		c-0.459,7.741,0.887,28.19,9.238,33.292c1.25,1.283,2.074,4.788,2.568,8.687c0.926,7.297,1.973,15.568,6.09,20.982
		c9.371,12.327,6.91,31.404,6.701,32.886c-0.033,0.021-0.078,0.048-0.139,0.077c-5.775,2.593-7.291,7.644-8.4,11.336l-0.568,1.833
		c-1.494,4.817-2.908,9.371-4.855,13.694c-0.262,0.376-1.391,1.27-2.854,1.822l-4.268,1.636
		c-26.975,10.342-54.869,21.034-80.773,35.354c-24.488,13.535-29.637,86.842-29.844,89.169c-0.125,1.397,0.344,2.783,1.291,3.818
		s2.285,1.625,3.689,1.625h178.672h178.672c1.404,0,2.742-0.59,3.689-1.625s1.416-2.421,1.291-3.818
		c-0.207-2.327-5.355-75.634-29.842-89.169c-25.906-14.32-53.801-25.013-80.775-35.354l-4.268-1.636
		c-1.463-0.553-2.592-1.446-2.854-1.822c-1.947-4.323-3.359-8.877-4.855-13.694l-0.568-1.833c-1.107-3.692-2.625-8.743-8.4-11.336
		c-0.059-0.029-0.105-0.056-0.137-0.077c-0.209-1.481-2.672-20.559,6.701-32.886c1.961-2.579,3.221-5.81,4.107-9.271
		c19.225,13.248,42.465,22.249,67.938,25.322v45.759c0,4.833,2.947,9.179,7.438,10.967c1.418,0.564,2.898,0.838,4.365,0.838
		c3.182,0,6.301-1.288,8.576-3.69l62.092-65.598c22.766-9.902,42.086-24.982,55.988-43.73c14.982-20.201,22.9-43.687,22.9-67.918
		C493.865,99.312,430.232,43.44,352.016,43.44z M403.57,258.832c-1.529,0.635-2.908,1.584-4.047,2.788l-43.408,45.857v-26.949
		c0-6.288-4.928-11.471-11.207-11.79c-27.982-1.418-53.238-11.126-72.58-26.218c5.49-7.667,6.42-23.557,6.027-30.172
		c-0.402-6.796-2.096-6.14-5.33-7.595c-0.209-0.094-0.426-0.174-0.645-0.238l-0.01-0.003l0.01-31.189
		c-0.02-15.871-3.871-26.547-11.781-32.636c-3.5-2.695-7.518-5.218-11.404-7.658c-2.133-1.338-4.291-2.695-6.248-4.015
		c17.896-36.363,60.045-61.965,109.068-61.965c65.197,0,118.242,45.281,118.242,100.938
		C470.258,206.362,444.082,242.02,403.57,258.832z"/>
	<circle cx="304.168" cy="166.41" r="14.886"/>
	<circle cx="352.014" cy="166.41" r="14.886"/>
	<circle cx="399.861" cy="166.41" r="14.886"/>
</g>
</svg>
