<?xml version="1.0" encoding="utf-8"?>
<!-- Generator: Adobe Illustrator 18.0.0, SVG Export Plug-In . SVG Version: 6.00 Build 0)  -->
<!DOCTYPE svg PUBLIC "-//W3C//DTD SVG 1.1//EN" "http://www.w3.org/Graphics/SVG/1.1/DTD/svg11.dtd">
<svg version="1.1" id="Capa_1" xmlns="http://www.w3.org/2000/svg" xmlns:xlink="http://www.w3.org/1999/xlink" x="0px" y="0px"
	 viewBox="-117 -116.3 256 256" enable-background="new -117 -116.3 256 256" xml:space="preserve">
<circle cx="-73.5" cy="-89.3" r="27.1"/>
<circle cx="95.6" cy="-89.3" r="27.1"/>
<circle cx="95.6" cy="55.1" r="27"/>
<circle cx="-73.5" cy="55.1" r="27.1"/>
<path d="M132.3-24.3c0-19.5-16.4-35.2-36.6-35.2c-20.3,0-36.7,15.8-36.7,35.2v12.8L37.7,11.2H-15l-21.9-23.3v-12.2
	c0-19.5-16.4-35.2-36.7-35.2c-20.3,0-36.7,15.8-36.7,35.2v19.6h65.6l18,19.2V57L-47.8,95c-6.6-6.3-15.7-10.2-25.7-10.2
	c-20.3,0-36.7,15.8-36.7,35.2v19.6h73.3v-19.6c0-5.7-1.5-10.9-4-15.7L-15.5,59h53.6l25.1,44.8c-2.6,4.9-4.3,10.3-4.3,16.2v19.6h73.3
	v-19.6c0-19.5-16.4-35.2-36.6-35.2c-9.8,0-18.7,3.8-25.3,9.8L47,52.9V16.9L67.2-4.7h65.1L132.3-24.3L132.3-24.3z"/>
</svg>
