<?xml version="1.0" encoding="utf-8"?>
<!-- Generator: Adobe Illustrator 16.0.0, SVG Export Plug-In . SVG Version: 6.00 Build 0)  -->
<!DOCTYPE svg PUBLIC "-//W3C//DTD SVG 1.1//EN" "http://www.w3.org/Graphics/SVG/1.1/DTD/svg11.dtd">
<svg version="1.1" id="Layer_1" xmlns="http://www.w3.org/2000/svg" xmlns:xlink="http://www.w3.org/1999/xlink" x="0px" y="0px"
	 width="32px" height="32px" viewBox="0 0 32 32" enable-background="new 0 0 32 32" xml:space="preserve">
<path d="M31.442,16.596c-0.62-1.388-2.249-2.011-3.637-1.391l-1.325,0.594l-3.395-7.591l1.325-0.592
	c1.388-0.622,2.01-2.25,1.389-3.637c-0.621-1.389-2.248-2.012-3.637-1.39l-1.324,0.593l-0.593-1.326
	c-0.621-1.388-2.249-2.009-3.637-1.388c-1.388,0.62-2.009,2.247-1.389,3.637l0.593,1.325L8.221,8.825L7.629,7.5
	C7.008,6.11,5.38,5.491,3.992,6.11C2.604,6.731,1.983,8.359,2.603,9.747l0.592,1.324l-1.324,0.594
	c-1.388,0.621-2.01,2.247-1.389,3.636c0.62,1.388,2.249,2.01,3.637,1.39l1.325-0.594l3.394,7.592L7.513,24.28
	c-1.388,0.622-2.009,2.25-1.389,3.637c0.621,1.389,2.249,2.011,3.637,1.391l1.324-0.593l0.593,1.325
	c0.621,1.389,2.249,2.01,3.637,1.389c1.387-0.62,2.009-2.248,1.388-3.636l-0.591-1.326l7.591-3.394l0.592,1.322
	c0.621,1.39,2.248,2.012,3.636,1.391c1.388-0.619,2.01-2.248,1.389-3.636l-0.592-1.325l1.324-0.593
	C31.441,19.611,32.063,17.984,31.442,16.596z M13.864,21.442l-3.395-7.593l7.591-3.394l3.395,7.591L13.864,21.442z"/>
</svg>
